<?xml version="1.0" encoding="UTF-8"?>
<!-- Created with Inkscape (http://www.inkscape.org/) -->
<svg width="491.2" height="688" version="1.1" viewBox="0 0 491.2 688" xmlns="http://www.w3.org/2000/svg" xmlns:cc="http://creativecommons.org/ns#" xmlns:dc="http://purl.org/dc/elements/1.1/" xmlns:rdf="http://www.w3.org/1999/02/22-rdf-syntax-ns#"><metadata><rdf:RDF><cc:Work rdf:about=""><dc:format>image/svg+xml</dc:format><dc:type rdf:resource="http://purl.org/dc/dcmitype/StillImage"/><dc:title/></cc:Work></rdf:RDF></metadata><path d="m169.65 681.03-3.6-.22084-19.2-2.4037-17.511-4.9354-2.4888-1.275-13.904-6.4244-14.096-9.3085-19.28-19.211-11.42-16.159-10.5-18.765v-.64166l-5.715-12.435-2.1009-4.8-2.1179-6.4-1.0432-1.6-4.8893-15.2-4.0665-15.2-2.7972-19.2-.3377-30.651 1.341-6.1489.9032-6.5904.9032-6.5904 4.5545-14.171 3.2951-6.2487.07072 1.7202-3.4664 18.28-.08446 29.6 3.5976 18.4 5.1533 17.17 1 .38983 1 .38984.0019-6.9749.0019-6.9749 1.576-21.6 1.61-9.6.8972-8.2174.8972-8.2174 1.7079-3.3826 1.7079-3.3826 5.6-2.7232 7.2094-.0768 1.9336-4.4 2.2747-6.4846 5.1768-10.315 8.3245-12.8 9.1006-10.705 4.763-3.3916-.50005 3.6483-.50006 3.6483h3.2708l8.7156-7.0997 14.461-15.408 10.97-14.98.98137-.1118 2.0373 9.6h1.2018l8.5795-5.8476 9.6-7.2271 10.513-9.3946 13.312-15.086 1.2252.75717.54151 3.9372.5415 3.9372 1.918 2.6229 13.191-7.4183 9.9575-7.954 7.6369-7.3642 8.4888-11.363 3.7689-6.8h1.133l2.7768 11.6 1.4032 1.5276 6.5098-7.1276 8.5046-12.8 2.2001-4.3928 2.2001-4.3927 4.4812-12.933 1.2074-8.7408 1.2074-8.7408.51586-5.5055.51586-5.5055 11.803 11.724 1.012-1.012.7427-6.2508.7427-6.2507.10831-14.4.1083-14.4-2.0369-15.061-4.4804-13.739-2.8474-5.6-2.5609-4-2.5609-4-11.381-10.95-.0169-6.9249-.0169-6.9249-1.9336-5.4794-1.9336-5.4794-2.6496-4.3863-2.6496-4.3863-8.1019-7.4686-3.0981-2.4058-8-5.1027-15.2-7.0401-10.4-3.4759-1.1729-.7418-1.1729-.74181 4.3359-1.6485 4.0581-2.659-3.6482-2.5609-9.0691-4.2936-11.731-3.4729-10.4-2.097-16-2.5855-5.9056.0256-.41877-.67758-.41876-.67758 4.7431-4.5442v-1.5422l-20.4.98319-15.858 2.458-8.9417 2.5665-15.02 4.6802-.48147-.48147-.64912-3.7498-.64913-3.7498-13.997 9.6324-13.38 12.665-3.5116 4.6186-3.5116 4.6185-1.6 1.7357-5.6 9.8167-1.288.0476-3.8267-8.6529-1.4216-.87858-2.8396 5.9315-4.5072 12.8-4.2935 19.2-1.3662 15.2-.02854.54277-.02854.54278-9.5415 7.2564-.61266-1.1419.18777-3.6.18777-3.6 1.8965-18.281 4.7154-18.161 4.6321-11.558 5.5818-10.623 1.4701-2.2885 1.4701-2.2885 1.1714-1.6 7.8502-9.6 5.9021-5.6-4.9112 9.3625v4.4664l2.6039.9992 4.3761-2.828 8.2058-9.9129 10.905-9.3856 10.309-7.3308 15.2-8.0623 12.442-4.9086h2.5816l-6.2233 4.163-4.5428 4.237-2.117 4.0494.76966 1.3753.76965 1.3753h6.9996l11.987-4.8h3.0135l1.52-1.4578 16.191-2.5422 24.609-.004 14.4 2.6597-9.5432 2.1844-3.6568 2.396v2.3866l5.0945 3.0981 8.9055.99164 13.6 3.9636 13.6 5.0654 15.2 7.8573 6.8 4.6774v.37544l-11.332-.64032-1.7059 1.7059 2.674 4.0811 19.564 9.6393 9.3908 6.7618 11.146 9.3922-.6381 1.7039-.63811 1.7039-.03 6.4-.0299 6.4 5.4262 9.6 6.0106 8.8723 3.9168 7.5639 3.9167 7.5639 2.1695 5.6 2.0945 4.8 3.4117 12 1.284 5.2 1.284 5.2-.0214 39.2-2.5641 12-3.1288 12-2.2014 6.6657-2.2015 6.6657-2.8885 5.8686.0289-6.4972.0289-6.4971-1.8227-3.4057h-2.0648l-3.2984 3.6-5.2038 12-4.8736 8.8-8.4146 12.8-11.37 13.248-13.636 11.552-2.3061 1.2927 4.8235-7.6059v-3.737l-2.3672-.90838-7.6328 3.682-17.6 17.477-12.8 10.702-11.62 7.5442-4.0841 1.5528h-.56784l9.472-9.472v-4.128l-6 .006-5.2601 3.207-19.695 19.695-16.853 13.492-7.7924 5.5735 6.1988-8.6539 2.1853-5.2301-.95529-2.4894h-1.6887l-3.8672 2.4816-3.8672 2.4816-15.175 22.778-4.431 5.6993-3.2 4.4807-7.8486 9.6789-1.5275 1.6 3.6201-7.2 2.0087-7.5905-.41964-1.6047-.41965-1.6047h-2.5319l-7.8895 8.4-3.5989 8-6.792 20.8-8.1806 16.8-.49353-10.8h-1.3383l-4.2868 13.749-2.4394 17.851-.04924 19.2 2.5636 21.153 1.675 6.6236 1.675 6.6236 5.4699 16.434 7.1697 15.14 8.0073 12.91 8.8886 11.81 10.738 11.03 9.6463 7.8756 9.5537 6.4.8 1.0094 15.793 8.1261 8.2072 2.6763 1.6 1.2128 12.571 2.5754 15.429-.0236 9.6-2.3224 7.4213-3.8262 7.2208-5.1856 4.9396-6.8783.88754-4.1385.88755-4.1385-.5432-2.9434-.54321-2.9434-3.3493-3.6h-5.8102l-2.6624 1.9643-2.6624 1.9642-1.3728 2.2358-1.3728 2.2357-8.6931 8.4107-8.3473 5.4973v-1.0029l1.659-3.427 1.659-3.427-.25899-1.8256-.25893-1.826-8.2367.20795-9.2069 4.2151-.52112-.52112 8.2209-6.2693 2.2719-3.1363 2.2718-3.136v-2.9995l-3.6227-1.3773-9.4302 1.4788-1.7472.91374 4.8-4.0896 8.8-4.6342 12-3.7948 18.4-.057 9.2429 3.8033 6.2528 7.1036 1.6521 5.1138 1.6521 5.1138-.006 2.6327-.006 2.6327-2.9981 9.8581-2.2558 3.0709-2.2558 3.0709-4.8781 4.7574-5.3237 3.6783-8.0288 4.0685-13.847 2.9601-12 .53563-3.6-.22085zm17.692-148.03 1.9079-1.4554 18.4-10.134 20-11.949 12.8-8.0717 5.6-3.4879 19.2-12.644 24.8-17.494 20.8-16.082 22.4-19.148 19.276-18.112 20.204-21.966 16.52-20.285 10.671-14.915 9.4475-14.4 3.0677-4.8 3.7338-6.4 3.7338-6.4 14.698-29.6 2.1265-4.8 4.0337-9.6 1.9798-5.2 1.9798-5.2 8.8522-26.442 1.0327-6.4582-3.8975-4.3501-3.8975-4.3501-8.8285-12-9.0224-14.4-10.911-21.717-1.7525-3.9415-1.7524-3.9415-1.6842-4.0561-1.6841-4.0561-4.7268.69374v3.1186l-1.5963 23.5-.75831 4-.75829 4-1.2974 10.4-1.2974 10.4-1.4519 4.8-3.0559 15.2-3.9734 14.4-3.4489 12-1.448 3.2-1.3514 4.2903-1.3514 4.2903-1.1008 2.1097-1.1008 2.1097-.01 1.3318-2.4849 5.7341-2.4849 5.7341-7.9625 16.644-10.863 19.384-9.2274 14.304-8.1329 11.269-11.944 15.2-18.443 20.604-24.857 23.697-22.4 18.594-21.474 16.217-9.7257 6.8403-8 5.0181.8-.79204.8-.79203 31.2-25.922 27-25.063 23.014-24.565 20.467-25.035 7.9965-11.2 8.8672-13.6 3.34-5.6 4.3232-7.6 4.3232-7.6 7.6969-16 1.9666-4.8 1.9667-4.8 3.1874-8 4.6703-14.4 2.7092-10.8 2.7092-10.8 1.7026-8.9564 1.7026-8.9564 1.6354-18.644 1.6354-18.644-.25711-22.4-.2571-22.4 11.732-5.5396-.46928-2.3464-.46927-2.3464-3.1976-6.4839-3.1976-6.4839-1.3708-2.4-1.3708-2.4-7.9872-12.8-15.639-20-6.2151-7.1006-5.219 5.9441-2.996 3.8088v6.1582l.79094 2.7578.79094 2.7579 2.4154 32.074-.006 35.2-1.2255 13.925-1.2255 13.925-.30068.48653-.30069.48652-2.6098 15.977-4.8389 20-1.2856 3.2-5.1673 16-5.5684 14.4-12.592 25.6-6.7134 11.2-13.644 20.8-13.515 18.4-1.6177 1.6 3.0384-5.6 3.0384-5.6.58393-.8.58395-.8 16.707-32.818 6.0041-13.582 2.8493-6.4 1.2045-4 1.1957-1.6 1.9975-6.4 2.0979-4.8 4.7948-14.4.89257-3.6.89258-3.6.72922-1.6.72923-1.6 1.7142-8 1.7142-8 3.1437-19.2 1.5283-8 .7839-11.2.78392-11.2.006-20.559-.81625-13.72-.81585-13.72-.72644-2.8-.72645-2.8-3.1579-22.4-1.6651-8.4-1.6652-8.4-.0132-1.8172-.0132-1.8172 8.1701-10.396-21.37-10.145-22.229-7.5699-16.971-3.1908-16.376-.84425-2.1769.83534 11.515 11.933 8.7129 11.012 7.3599 11.2 7.9725 16 5.6803 16 2.5268 8.347 4.0701 20.453 1.6961 17.6-1.0066 37.6-.76002 4.4-.76001 4.4-4.173 26.4-.82598 4.8-.82599 4.8-.0948 30.8h-.62339l-3.8275-8.4-2.5026-22.4-1.2032-8.8-1.2032-8.8-4.072-13.6-4.1221-9.6-3.056-5.2-3.0559-5.2-6.3854-7.9504.61102-.61102 2.1053 1.7203 9.6 7.7856 9.9214 10.63.94152-1.5234.74162-8.2255.74163-8.2255-.0468-18.4-.68111-6.4-.6811-6.4-1.5897-9.2-1.5897-9.2-4.2149-12.8-3.8596-9.6-4.6121-8.8-3.7957-6.4-6.221-8.5288-9.6664-10.671-11.388-10.109-16.062-10.733-12.57-6.211 1.0067-18.722-1.3872-1.2047-1.3872-1.2047-8.0629-3.98-6.3371-1.9468-3.2-1.3837-10.531-1.7048-23.869-.0536 9.3641-3.221 23.436-5.0418 44-.0432 22.4 4.3883 16.8 4.1682 25.6 8.052 25.6 9.2869 10.984 4.1045 16.85 3.9814 1.2657-1.8109 1.2657-1.8109 13.634-16.996 14.364-16.204h1.2494l-1.5918 2.8-3.9775 9.2989-1.3309 6.1506-1.3309 6.1506-.0876 19.2 1.0394 4.8 1.0394 4.8 3.97 9.6 4.9087 8 10.631 10.42 11.916 5.9638 9.6 1.8422h11.2l9.6-1.8742 5.6-1.6919 6.7826-3.0602 1.2174.006-5.5673 3.3938-16.153 16.2-9.0834 15.275-4.7966 14.798v19.258l4.2242 12.269 2.4556 4.4 2.4556 4.4 13.665 13.6 12.26 6.9007 8.108 3.0808 1.3736-2.5908 1.3736-2.5908 4.4265-9.2214 1.9379-6.7786 1.1255-1.6 2.6552-12 3.0474-13.6-.28185 14.8-.28186 14.8-.51482 4.8-.51483 4.8-1.5342 10.4-1.5342 10.4-1.9068 8.8-1.9068 8.8-2.4885 8-2.5226 8.4-2.5226 8.4-2.1211 4.8-.57761 2-.57762 2-8.7602 20.8-11.029 22.4-13.336 23.2-4.3271 6.4-.76939 1.2-.7694 1.2-6.5178 9.6-5.5781 8-5.2058 7.2957-18.935 23.754-10.599 11.675-10.599 11.675-23.797 23.217-14.452 12.783-7.1476 5.9243-10.4 8.6265-19.615 14.684-27.585 18.434-4.8 2.9179-13.988 8.3138-26.012 13.157-12.8 5.7964-15.2 5.8203-7.4966 3.1262h-1.1192zm17.508-12.979v-.76598h1.2432l15.957-12.874 11.687-10.581 12.105-14.428 7.3053-11.317 8.6194-17.155 9.0832-5.5385 8.8-6.4243 3.8165-2.8821 6.9835-6.2038v1.1309l-3.8925 9.8729-1.3229 4.6427-1.3229 4.6427.48151 1.2548.48152 1.2548 5.1754-1.0165 13.6-8.1933 18.137-12.715.72178.72178-21.259 20.039-20.814 17.429-19.186 14.38-3.3861 2.3612-19.814 13.461-16.074 9.9487-17.126 9.7226zm-151.04-64.926-.96-.96v-1.3678l-3.3819-7.4237-.86328-8.3239-.86328-8.3239-5.5001.89255-4.5835-2.3702-6.2192-7.8679-3.2492-6.8952-1.1476-5.6 7.9564 7.4288 5.1315 2.6536 2.9976-.9514 5.0597-5.131 3.8965-6.5982 1.3797-14.953-.77737-9.2091-.77737-9.2092-1.4631-2.7338 1.4799-.9146 4.3123 9.1155 1.8874 6.502 2.1838-7.7825-2.8175-15.417-.80444-4 3.5004 6.4 4.0388 11.2 2.1956 8.8-.37491-6.1901-.37491-6.1901-.47687-3.4099-.47687-3.4099 4.3132 7.2 1.9092 5.0183 1.9092 5.0183v12.587l-1.615 7.8488-1.615 7.8488-1.985 4.3359-1.985 4.3359v.60665h2.216l2.4732-3.7746 11.711-11.317 12-8.7103 12.8-6.8193 12.542-5.3783h5.3768l3.9458 5.2.71389 2.8.7139 2.8 5.1078.50138v1.1103l-7.2652 4.3884-1.1348.006-7.0937 4.7061-.57444-.35502-.57444-.35503-.55445-5.0014-.55446-5.0014-2.4058-3.7838-5.5523.90101-8.7585 5.8135-15.532 12.569-22.176 22.412-4.6898 1.03-2.113-1.7537-.96085-8.1129.80673-6.4338.80673-6.4338-.64503-.64503-1.1145.45117-1.1145.45116-6 8.259v3.7815l.92169 1.7474.92169 1.7474 3.7771 3.5426-.11656 5.3752-.11656 5.3752 3.7715 3.054 6.2756-1.0035 7.7814-3.3475 26.784-27.591 2.5603-1.3027 2.5603-1.3027h3.3846l3.0948 1.6563v5.018l-7.0759 6.7799-5.9496-2.0454-1.3445.35161-1.3445.3516-17.143 17.223-17.143 17.223-3.156 2.2424h-1.724zm232.89-51.081 2.0344-3.6409 7.943-15.918 3.9901-9.6 4.4639-14.4.122-15.2-4.1402-8.3693 17.74-19.964.44124 10.567.44125 10.567.9144 2.1354.9144 2.1354 1.4168.79286 1.4168.79287 5.6552-2.8929 9.2-9.0665v1.4368l-10.569 17.43-10.54 15.236-10.675 14.4-9.4156 11.44-7.5938 9.3597-5.7939 6.4zm-174.98-23.4.38059-.95926 13.157-9.2486 12-7.6219 17.6-9.7265 12.8-6.785 27.2-15.104 10.4-6.4598 11.2-8.1313 3.476-3.2617 3.476-3.2617 6.0229-8.8 1.656-3.2571 1.656-3.2571 1.6981-5.0408 1.6981-5.0408.8685-6.7281.86851-6.7281-.92796-8.1607-.92797-8.1607-2.5427-8.8266-4.0632-12-6.1582-13.359v-.45461l3.6-.81583 16.643-4.2486.98396.37758.98397.37759 1.9986 8.5228.57611.8.5761.8 1.9699 9.6.44215 10.891.44215 10.891-1.9579 13.418-2.3198 6.7014-2.3198 6.7014-4.3616 8.9972-10.726 16-14.931 14.403-8 6.683-15.2 12.093-3.2 2.4318-16 11.353-20 13.173-11.548 7.4638h-2.1316l-1.7575-1.7575-8.5625.70218-12.627 3.448-.8864.67949-.8864.67948-1.3592.48345-1.3593.48344zm-43.909-44.359-.34171-.6-2.0141-8.8-4.0689-8.8-11.707-17.107-3.9163-8.5618-1.8601-11.131-3.9121-11.2-4.5412-8.9648-2.9312-4.4736 3.2782 1.7544 5.7715 6.3884 2.8129 5.2956 5.2776 12.726v1.2806l7.1657 15.03 4.3017 5.1122 6.1008 3.8513h5.3118l1.92 1.92v10.693l3.6.96476 1.8856.011 1.8856.0109-.58553-1.4-.58552-1.4-3.7664-10.4.0238-4 3.6709 4.4857 5.4633 11.041 6.4082.47285.51128 3.6h4.7542l10.735-3.3267 7.7554-3.1846.92784.92784-1.5416 1.1816-1.5416 1.1816-8 4.6033-13.6 4.0308-18.4 4.3552-5.2915 3.0311h-.61412l-.34172-.6zm25.931-18.8-3.2439-3.4-4.8401-9.3625v-2.0603l-2.9718-3.67-6.0299 3.5577-.72798-.72799 1.7859-3.337h-1.3363l-1.52 1.4492-6.1883 3.4292-.64426-.64426 17.105-16.475-2.5341-4.1587-11.12-20-4.5358-8.5149-4.0831-2.1393-4.4182 2.6099-1.5909 4.2522-1.5909 4.2522-.04866 13.14-.73206-1.251-.73206-1.251-.84362-6.728-.84362-6.728v-22.894l8.4 6.2538 3.6864 1.9006 7.5136 2.2802 7.328.018 2.8163 14.8 2.0413 5.2 2.0413 5.2 2.678 5.0042 2.678 5.0042 2.1025 3.177 2.1024 3.177-1.3863 5.1213-1.3863 5.1213.30535 6.0468.30534 6.0468 1.987 2.1537 1.987 2.1537 5.1486 2.1938 5.2514.012-4.8 3.1789-5.8722.012-3.2439-3.4zm319.92-11.398v-.42981l8.114-14.394 5.5787-12.378.69-1.6.69001-1.6 3.9645-12 .97986-6.1301.97985-6.1301-.6607-15.106-1.9731-3.8341-1.9731-3.8341-4.2273-3.1561-6.6128.0912-5.4759 3.3843-5.7006 7.7658-3.3175 8.5495-1.3773 2.6524-2.4365 12.548-.36779 2.4-.36778 2.4.32156-9.2.32155-9.2.89485-4.8.89484-4.8 3.8825-13.6 3.3998-8.8 5.672-12.4h1.0294l9.9971 12.4 5.0799 6.3124 6.3167 7.2876 9.3351 9.6953-.80061 7.0459-.8006 7.0459-4.9432 15.206-7.2752 13.807-10.084 14.475-9.7486 10.757v-.42982zm-343.58-11.802-.33126-1-3.3722-11.658-2.3129-13.142.14376-3.2 2.9154 8.8 4.768 12 1.4137 3.4179 1.4137 3.4179-3.0568 2.3133-1.2502.0508zm-31.96-13.02-3.1419-4.3855-5.7162-5.1944-5.9785-4.465-1.9142-3.535-2.5127-9.6.1909-12 2.0287-14.007 5.7169 9.2074 16.344 18.103 6.3493 12.297 1.1465 5.6-10.91-15.2-7.447-7.6h-4.2653l-.66152 1.7883-.66152 1.7882 2.3242 6.821 4.7102 3.3539-.98708 3.11 4.7661 7.5385 3.1706 7.2 1.0985 3.6-.25391-.0173-.25391-.0172zm275.99-5.18.44705-3.6.70494-2 .70495-2 2.626-20 .22334-17.736-2.7937-4.2637h-4.1108l-4.0681 3.2h-1.2705l4.2863-8.4114 7.9386-11.776 5.2929-2.524 2.7094 2.7094 2.0348 6.8019 4e-5 6.4 3e-5 6.4-4.6216 21.6-4.0396 12.8-3.1538 8.8-3.3573 7.2zm-299.37-32.872-.91648-1.128-4.2708-10.198-1.5919-7.3009-1.5919-7.3009-.82136-13.6-.82136-13.6 1.1435-32.8 2.1118 6.0254 1.2529 10.987 1.2529 10.987 1.5691 6.823v4.5675l1.2147 6.9654 1.2147 6.9654 3.2352 6.3415 5.1355 3.1312 5.8578.006 4.0047-4.7594 1.8302-5.5455 2.8771-5.9149.61001.98702.61001.98703-.58352 16.34-.58352 16.34-11.9-11.304-4.1338-1.5717-1.4204.45083-1.4204.45082-.56191 1.3696-.56191 1.3695-.912 7.528-.912 7.528zm37.778-13.728 2.8464-5 4.8329-10.4.43412-2.6.43412-2.6h-1.5614l-2.4878 2.8-5.19 8.8-6.1323 13.6.000328-2.4 1.6554-6.4 2.9708-14.4.3128-4-.2516-3.2-3.7507 7.2-4.1084 16-.68314 3.6-.68314 3.6-1.1226-13.6 1.6142-20.773 4.113-16.027 3.4952-7.7729-.54442 15.079 2.4628 5.8943h5.3823l4.1109-4.4 5.02-8.8-1.2288 7.2.02596 9.8637 3.0193 3.3363 2.552-.014 8.0243-4.6028 8.7417-7.7822-1.8131 2.4-1.8131 2.4-3.7473 5.6-16.817 20-12.042 12.4h-.91902l2.8464-5zm147.54-3.3728-2.8-1.06-18.4-9.0951 4.8.92045 10.8 1.0395v-4.2274l-5.6-6.1985v-.96457l8.4 5.0664 10.308 5.292h6.9431l5.9486-2.5475 7.736-2.3548 11.726-5.3439 1.3053-1.9922 1.3053-1.9922-.53756-2.1418-.53755-2.1418-8.2617-10.079-3.0679-6.8034 3.7089-3.0033h11.023l-.0346 1.2-5.1654 2.4-.26428 2.3155-.26429 2.3155 2.2188 4.0767 2.2188 4.0767 1.8455 2.7194 1.8455 2.7194v6.7288l-2.8 2.4616-6.496 3.2638-10.208 2.6451-11.667 5.5367-7.3263 6.3409-5.9027-.1128-2.8-1.06zm177.69-2.0272-.077-2 2.4552-16 .0502-24-3.2481-14.819-4.2566-5.5808h-3.5312l-3.2918 3.6-2.3724 4.8-1.7656 8-.98356 8-.45112 1.6-.45113 1.6-1.2508-3.2-.1342-26.4.95426-17 .95427-17h1.3132v1.319l9.9339 15.081 13.666 14.178-.0321 18.511-.0321 18.511-1.857 8-1.3267 8.3506-1.3267 8.3506-.64495 1.2494-.64496 1.2494-1.5722 5.6-.077-2zm-208.34-3.9-.54382-2.7.0332-8.2 2.4602-10.4.42744-2.4859.42744-2.4859-2.8417-1.0904-2.6892 2.8623-.88007 6.5353-.88006 6.5353-1.2334 2.6647-1.2334 2.6647.41884-3.6.41882-3.6.42581-5.6.4258-5.6-1.1165-3.5602-1.1165-3.5602-1.4437 2.2034-1.4438 2.2034-3.1213 12.314-.95713 4.7856-.95713 4.7856-.65882-1.066-.65882-1.066.56562-7.3196.56561-7.3196.66193-3.2.66192-3.2 3.5079-12 3.9123-5.2h3.9823l6.6671 3.4013 23.269 15.184 5.8018 3.8952 4.5982-1.0395 9.6-3.2271 1.3804-1.2741-7.1989-10.14-4.8679-10.4-3.1507-10.4-.56275-2.8-.56274-2.8 8.5626 11.767 10.995 13.833 12.734 12.963-.26457 2.3184-.26456 2.3184-5.6 2.8041-14.819 5.6169-8.1644 1.751-9.8162-1.8867-10.156-4.8945-6.4139-.1682-1.8497 2.3198-1.8497 2.3198-2.4229 8.9379-2.2204 8-.54381-2.7zm-101.28-26.167.06316-1.5333.42018 1.05.42018 1.05-.48333.48334-.48333.48332.06316-1.5333zm1.1453-4.8114.49096-3.278 2.1949-6.3388 2.1949-6.3387 7.2158-14.436 6.461-8.7309 11.149-10.503 10.762-6.0187 11.522-4.0572 21.64-.81466 14.36 3.5682 13.6 5.2843 9.8854 5.5895 10.915 7.0665 5.0717 5.08 1.1402 5.2052 4.7215 12 7.8666 16.563v.45237l-9.0138 1.1262-9.7862-9.4676-10.238-8.3564-15.913-10.493-13.049-6.1097-10.4-3.2012-11.2-2.5186-14.725.004-3.6753 1.4198-8.8 1.9374-9.6 4.8701-8.8 6.8965-5.8339 6.9823-2.683 4.3427-2.683 4.3421-2.6412 5.6043-2.6412 5.6051zm262.63-51.522-.56178-3.6-1.7638-13.6-2.119-9.6-3.2171-11.2-3.5497-7.2-4.1262-4.4h-4.4638l-2.6851 4.0979-.38198 7.9327-.382 7.9327-1.3444-.83086-1.7884-6.7324-4.7714-11.2-4.9429-9.6-5.5196-8.8-6.4472-8.4407.68566-.68567 18.34 7.1782 8 3.0249 16.175 4.9547 2.5203 12.369.8273 8.8.82732 8.8.88561 10 .88563 10-.26075 7.2-.26073 7.2zm134.35-52.899.98668-.99406.89567.89567-2.869 1.0925z" stroke-width=".8"/></svg>
